<mxfile host="app.diagrams.net" modified="2025-01-15T07:30:56.580Z" agent="Mozilla/5.0 (Windows NT 10.0; Win64; x64) AppleWebKit/537.36 (KHTML, like Gecko) Chrome/131.0.0.0 Safari/537.36 Edg/131.0.0.0" etag="vv4ZDc1H6ZgwJpA3Q9a_" version="21.3.8" type="github">
  <diagram id="C5RBs43oDa-KdzZeNtuy" name="Page-1">
    <mxGraphModel dx="1379" dy="829" grid="1" gridSize="10" guides="1" tooltips="1" connect="1" arrows="1" fold="1" page="1" pageScale="1" pageWidth="827" pageHeight="1169" math="0" shadow="0">
      <root>
        <mxCell id="WIyWlLk6GJQsqaUBKTNV-0" />
        <mxCell id="WIyWlLk6GJQsqaUBKTNV-1" parent="WIyWlLk6GJQsqaUBKTNV-0" />
        <mxCell id="sl8xkUU-uQ6TIJ8m4uvc-21" style="edgeStyle=orthogonalEdgeStyle;rounded=0;orthogonalLoop=1;jettySize=auto;html=1;exitX=0.5;exitY=0;exitDx=0;exitDy=0;" edge="1" parent="WIyWlLk6GJQsqaUBKTNV-1" source="sl8xkUU-uQ6TIJ8m4uvc-20">
          <mxGeometry relative="1" as="geometry">
            <mxPoint x="240" y="60" as="targetPoint" />
          </mxGeometry>
        </mxCell>
        <mxCell id="sl8xkUU-uQ6TIJ8m4uvc-20" value="" style="rounded=1;whiteSpace=wrap;html=1;arcSize=18;" vertex="1" parent="WIyWlLk6GJQsqaUBKTNV-1">
          <mxGeometry x="45" y="60" width="390" height="380" as="geometry" />
        </mxCell>
        <mxCell id="sl8xkUU-uQ6TIJ8m4uvc-1" value="" style="edgeStyle=orthogonalEdgeStyle;rounded=0;orthogonalLoop=1;jettySize=auto;html=1;strokeWidth=2;" edge="1" parent="WIyWlLk6GJQsqaUBKTNV-1" source="WIyWlLk6GJQsqaUBKTNV-11" target="sl8xkUU-uQ6TIJ8m4uvc-0">
          <mxGeometry relative="1" as="geometry" />
        </mxCell>
        <mxCell id="sl8xkUU-uQ6TIJ8m4uvc-17" style="edgeStyle=orthogonalEdgeStyle;rounded=0;orthogonalLoop=1;jettySize=auto;html=1;exitX=0;exitY=0.5;exitDx=0;exitDy=0;strokeWidth=2;" edge="1" parent="WIyWlLk6GJQsqaUBKTNV-1" source="WIyWlLk6GJQsqaUBKTNV-11">
          <mxGeometry relative="1" as="geometry">
            <mxPoint x="240" y="260" as="targetPoint" />
            <Array as="points">
              <mxPoint x="80" y="460" />
              <mxPoint x="80" y="260" />
            </Array>
          </mxGeometry>
        </mxCell>
        <mxCell id="WIyWlLk6GJQsqaUBKTNV-11" value="&lt;h2&gt;Input&lt;/h2&gt;&lt;h1&gt;&lt;/h1&gt;" style="rounded=0;whiteSpace=wrap;html=1;fontSize=12;glass=0;strokeWidth=1;shadow=0;arcSize=43;fillColor=#f8cecc;strokeColor=#b85450;" parent="WIyWlLk6GJQsqaUBKTNV-1" vertex="1">
          <mxGeometry x="160" y="440" width="160" height="40" as="geometry" />
        </mxCell>
        <mxCell id="sl8xkUU-uQ6TIJ8m4uvc-0" value="&lt;h2&gt;RMSNorm&lt;/h2&gt;&lt;h1&gt;&lt;/h1&gt;" style="whiteSpace=wrap;html=1;rounded=0;glass=0;strokeWidth=1;shadow=0;fillColor=#fff2cc;strokeColor=#d6b656;" vertex="1" parent="WIyWlLk6GJQsqaUBKTNV-1">
          <mxGeometry x="160" y="360" width="160" height="40" as="geometry" />
        </mxCell>
        <mxCell id="sl8xkUU-uQ6TIJ8m4uvc-4" value="&lt;h2&gt;RMSNorm&lt;/h2&gt;&lt;h1&gt;&lt;/h1&gt;" style="whiteSpace=wrap;html=1;rounded=0;glass=0;strokeWidth=1;shadow=0;" vertex="1" parent="WIyWlLk6GJQsqaUBKTNV-1">
          <mxGeometry x="160" y="280" width="120" height="40" as="geometry" />
        </mxCell>
        <mxCell id="sl8xkUU-uQ6TIJ8m4uvc-5" value="&lt;h2&gt;RMSNorm&lt;/h2&gt;&lt;h1&gt;&lt;/h1&gt;" style="whiteSpace=wrap;html=1;rounded=0;glass=0;strokeWidth=1;shadow=0;" vertex="1" parent="WIyWlLk6GJQsqaUBKTNV-1">
          <mxGeometry x="160" y="280" width="120" height="40" as="geometry" />
        </mxCell>
        <mxCell id="sl8xkUU-uQ6TIJ8m4uvc-6" value="&lt;h2&gt;LlamaAttention&lt;/h2&gt;&lt;h1&gt;&lt;/h1&gt;" style="whiteSpace=wrap;html=1;rounded=0;glass=0;strokeWidth=1;shadow=0;fillColor=#dae8fc;strokeColor=#6c8ebf;" vertex="1" parent="WIyWlLk6GJQsqaUBKTNV-1">
          <mxGeometry x="160" y="280" width="160" height="40" as="geometry" />
        </mxCell>
        <mxCell id="sl8xkUU-uQ6TIJ8m4uvc-8" value="&lt;h2&gt;RMSNorm&lt;/h2&gt;&lt;h1&gt;&lt;/h1&gt;" style="whiteSpace=wrap;html=1;rounded=0;glass=0;strokeWidth=1;shadow=0;fillColor=#fff2cc;strokeColor=#d6b656;" vertex="1" parent="WIyWlLk6GJQsqaUBKTNV-1">
          <mxGeometry x="160" y="200" width="160" height="40" as="geometry" />
        </mxCell>
        <mxCell id="sl8xkUU-uQ6TIJ8m4uvc-10" value="&lt;h2&gt;RMSNorm&lt;/h2&gt;&lt;h1&gt;&lt;/h1&gt;" style="whiteSpace=wrap;html=1;rounded=0;glass=0;strokeWidth=1;shadow=0;" vertex="1" parent="WIyWlLk6GJQsqaUBKTNV-1">
          <mxGeometry x="160" y="120" width="120" height="40" as="geometry" />
        </mxCell>
        <mxCell id="sl8xkUU-uQ6TIJ8m4uvc-11" value="&lt;h2&gt;LlamaMLP&lt;/h2&gt;&lt;h1&gt;&lt;/h1&gt;" style="whiteSpace=wrap;html=1;rounded=0;glass=0;strokeWidth=1;shadow=0;fillColor=#d5e8d4;strokeColor=#82b366;" vertex="1" parent="WIyWlLk6GJQsqaUBKTNV-1">
          <mxGeometry x="160" y="120" width="160" height="40" as="geometry" />
        </mxCell>
        <mxCell id="sl8xkUU-uQ6TIJ8m4uvc-13" value="" style="edgeStyle=orthogonalEdgeStyle;rounded=0;orthogonalLoop=1;jettySize=auto;html=1;strokeWidth=2;exitX=0.5;exitY=0;exitDx=0;exitDy=0;entryX=0.5;entryY=1;entryDx=0;entryDy=0;" edge="1" parent="WIyWlLk6GJQsqaUBKTNV-1" source="sl8xkUU-uQ6TIJ8m4uvc-0" target="sl8xkUU-uQ6TIJ8m4uvc-6">
          <mxGeometry relative="1" as="geometry">
            <mxPoint x="219.5" y="360" as="sourcePoint" />
            <mxPoint x="219.5" y="320" as="targetPoint" />
            <Array as="points">
              <mxPoint x="240" y="350" />
              <mxPoint x="240" y="350" />
            </Array>
          </mxGeometry>
        </mxCell>
        <mxCell id="sl8xkUU-uQ6TIJ8m4uvc-14" value="" style="edgeStyle=orthogonalEdgeStyle;rounded=0;orthogonalLoop=1;jettySize=auto;html=1;strokeWidth=2;exitX=0.5;exitY=0;exitDx=0;exitDy=0;entryX=0.5;entryY=1;entryDx=0;entryDy=0;" edge="1" parent="WIyWlLk6GJQsqaUBKTNV-1" source="sl8xkUU-uQ6TIJ8m4uvc-8" target="sl8xkUU-uQ6TIJ8m4uvc-11">
          <mxGeometry relative="1" as="geometry">
            <mxPoint x="219.5" y="200" as="sourcePoint" />
            <mxPoint x="219.5" y="160" as="targetPoint" />
          </mxGeometry>
        </mxCell>
        <mxCell id="sl8xkUU-uQ6TIJ8m4uvc-15" value="" style="edgeStyle=orthogonalEdgeStyle;rounded=0;orthogonalLoop=1;jettySize=auto;html=1;strokeWidth=2;exitX=0.5;exitY=0;exitDx=0;exitDy=0;entryX=0.5;entryY=1;entryDx=0;entryDy=0;" edge="1" parent="WIyWlLk6GJQsqaUBKTNV-1" source="sl8xkUU-uQ6TIJ8m4uvc-6" target="sl8xkUU-uQ6TIJ8m4uvc-8">
          <mxGeometry relative="1" as="geometry">
            <mxPoint x="219.5" y="280" as="sourcePoint" />
            <mxPoint x="219.5" y="240" as="targetPoint" />
            <Array as="points">
              <mxPoint x="240" y="250" />
              <mxPoint x="240" y="250" />
            </Array>
          </mxGeometry>
        </mxCell>
        <mxCell id="sl8xkUU-uQ6TIJ8m4uvc-16" value="" style="edgeStyle=orthogonalEdgeStyle;rounded=0;orthogonalLoop=1;jettySize=auto;html=1;strokeWidth=2;exitX=0.5;exitY=0;exitDx=0;exitDy=0;" edge="1" parent="WIyWlLk6GJQsqaUBKTNV-1" source="sl8xkUU-uQ6TIJ8m4uvc-11">
          <mxGeometry relative="1" as="geometry">
            <mxPoint x="220" y="120" as="sourcePoint" />
            <mxPoint x="240" y="40" as="targetPoint" />
          </mxGeometry>
        </mxCell>
        <mxCell id="sl8xkUU-uQ6TIJ8m4uvc-19" value="" style="endArrow=classic;html=1;rounded=0;strokeWidth=2;" edge="1" parent="WIyWlLk6GJQsqaUBKTNV-1">
          <mxGeometry width="50" height="50" relative="1" as="geometry">
            <mxPoint x="80" y="260" as="sourcePoint" />
            <mxPoint x="240" y="80" as="targetPoint" />
            <Array as="points">
              <mxPoint x="80" y="80" />
            </Array>
          </mxGeometry>
        </mxCell>
      </root>
    </mxGraphModel>
  </diagram>
</mxfile>
